<svg width="43" height="35" viewBox="0 0 43 35" fill="none" xmlns="http://www.w3.org/2000/svg">
<path d="M38.7 30.625H34.4V11.4844L21.5 19.6875L8.6 11.4844V30.625H4.3V4.375H6.88L21.5 13.6719L36.12 4.375H38.7M38.7 0H4.3C1.9135 0 0 1.94687 0 4.375V30.625C0 31.7853 0.453034 32.8981 1.25944 33.7186C2.06585 34.5391 3.15957 35 4.3 35H38.7C39.8404 35 40.9342 34.5391 41.7406 33.7186C42.547 32.8981 43 31.7853 43 30.625V4.375C43 3.21468 42.547 2.10188 41.7406 1.28141C40.9342 0.460936 39.8404 0 38.7 0Z" fill="#9F1313"/>
</svg>
